<svg xmlns="http://www.w3.org/2000/svg" xmlns:xlink="http://www.w3.org/1999/xlink" viewBox="0,0,256,256" width="48px" height="48px" fill-rule="nonzero"><g fill-opacity="0" fill="#dddddd" fill-rule="nonzero" stroke="none" stroke-width="1" stroke-linecap="butt" stroke-linejoin="miter" stroke-miterlimit="10" stroke-dasharray="" stroke-dashoffset="0" font-family="none" font-weight="none" font-size="none" text-anchor="none" style="mix-blend-mode: normal"><path d="M0,256v-256h256v256z" id="bgRectangle"></path></g><g fill="#fefdfd" fill-rule="nonzero" stroke="none" stroke-width="1" stroke-linecap="butt" stroke-linejoin="miter" stroke-miterlimit="10" stroke-dasharray="" stroke-dashoffset="0" font-family="none" font-weight="none" font-size="none" text-anchor="none" style="mix-blend-mode: normal"><path d="M64,256c-35.34622,0 -64,-28.65378 -64,-64v-128c0,-35.34622 28.65378,-64 64,-64h128c35.34622,0 64,28.65378 64,64v128c0,35.34622 -28.65378,64 -64,64z" id="shape"></path></g><g fill="none" fill-rule="nonzero" stroke="none" stroke-width="1" stroke-linecap="butt" stroke-linejoin="miter" stroke-miterlimit="10" stroke-dasharray="" stroke-dashoffset="0" font-family="none" font-weight="none" font-size="none" text-anchor="none" style="mix-blend-mode: normal"><g transform="scale(5.33333,5.33333)"><path d="M24,44c-0.552,0 -1,-0.448 -1,-1c0,-0.552 0.448,-1 1,-1z" fill="#0370c8"></path><path d="M25,43c0,0.552 -0.448,1 -1,1v-2c0.552,0 1,0.448 1,1z" fill="#0f5094"></path><circle cx="42" cy="11" r="1" fill="#0883d9"></circle><circle cx="6" cy="11" r="1" fill="#33bff0"></circle><path d="M24,43l0.427,0.907c0,0 15.144,-7.9 18.08,-19.907h-18.507z" fill="#0f5094"></path><path d="M43,11l-1,-1c-11.122,0 -11.278,-6 -18,-6v20h18.507c0.315,-1.288 0.493,-2.622 0.493,-4c0,-3.144 0,-9 0,-9z" fill="#0883d9"></path><path d="M24,43l-0.427,0.907c0,0 -15.144,-7.9 -18.08,-19.907h18.507z" fill="#0370c8"></path><path d="M5,11l1,-1c11.122,0 11.278,-6 18,-6v20h-18.507c-0.315,-1.288 -0.493,-2.622 -0.493,-4c0,-3.144 0,-9 0,-9z" fill="#33bff0"></path></g></g></svg>